{"title":"Lighthouse_DennisNicolero720p.mp4","uid":9819781,"size":643131463,"categoryP":"porn","categoryS":"movie_clips","magnet":"?xt=urn:btih:df54da9cb7abca126ac55606a1a4bc8fef5c38ca&amp;dn=Lighthouse_DennisNicolero720p.mp4&amp;tr=udp%3A%2F%2Ftracker.openbittorrent.com%3A80&amp;tr=udp%3A%2F%2Fopen.demonii.com%3A1337&amp;tr=udp%3A%2F%2Ftracker.coppersurfer.tk%3A6969&amp;tr=udp%3A%2F%2Fexodus.desync.com%3A6969","seeders":0,"leechers":0,"uploader":"Machtnix","files":1,"time":1395681094,"description":" &lt;a href=&quot;http://bayimg.com/famepaafk&quot; rel=&quot;nofollow&quot; target=&quot;_NEW&quot;&gt;http://bayimg.com/famepaafk&lt;/a&gt;\n\nGay Movie Solo\n\nFormat                                   : MPEG-4\nFormat profile                           : Base Media / Version 2\nCodec ID                                 : mp42\nFile size                                : 613 MiB\nDuration                                 : 20mn 36s\nOverall bit rate mode                    : Variable\nOverall bit rate                         : 4 161 Kbps\nEncoded date                             : UTC 2012-07-28 23:54:13\nTagged date                              : UTC 2012-07-28 23:54:13\n\nVideo\nID                                       : 1\nFormat                                   : AVC\nFormat/Info                              : Advanced Video Codec\nFormat profile                           : &lt;a class=&quot;__cf_email__&quot; href=&quot;/cdn-cgi/l/email-protection&quot; data-cfemail=&quot;733e121a1d333f405d42&quot;&gt;[email&amp;#160;protected]&lt;/a&gt;&lt;script cf-hash='f9e31' type=&quot;text/javascript&quot;&gt;\n/* &lt;![CDATA[ */!function(){try{var t=&quot;currentScript&quot;in document?document.currentScript:function(){for(var t=document.getElementsByTagName(&quot;script&quot;),e=t.length;e--;)if(t[e].getAttribute(&quot;cf-hash&quot;))return t[e]}();if(t&amp;&amp;t.previousSibling){var e,r,n,i,c=t.previousSibling,a=c.getAttribute(&quot;data-cfemail&quot;);if(a){for(e=&quot;&quot;,r=parseInt(a.substr(0,2),16),n=2;a.length-n;n+=2)i=parseInt(a.substr(n,2),16)^r,e+=String.fromCharCode(i);e=document.createTextNode(e),c.parentNode.replaceChild(e,c)}}}catch(u){}}();/* ]]&gt; */&lt;/script&gt;\nFormat settings, CABAC                   : Yes\nFormat settings, ReFrames                : 4 frames\nCodec ID                                 : avc1\nCodec ID/Info                            : Advanced Video Coding\nDuration                                 : 20mn 36s\nBit rate mode                            : Variable\nBit rate                                 : 4 000 Kbps\nMaximum bit rate                         : 5 000 Kbps\nWidth                                    : 1 280 pixels\nHeight                                   : 720 pixels\nDisplay aspect ratio                     : 16:9\nFrame rate mode                          : Constant\nFrame rate                               : 25.000 fps\nStandard                                 : PAL\nColor space                              : YUV\nChroma subsampling                       : 4:2:0\nBit depth                                : 8 bits\nScan type                                : Progressive\nBits/(Pixel*Frame)                       : 0.174\nStream size                              : 590 MiB (96%)\nLanguage                                 : English\nEncoded date                             : UTC 2012-07-28 23:54:13\nTagged date                              : UTC 2012-07-28 23:54:13\n\nAudio\nID                                       : 2\nFormat                                   : AAC\nFormat/Info                              : Advanced Audio Codec\nFormat profile                           : LC\nCodec ID                                 : 40\nDuration                                 : 20mn 36s\nBit rate mode                            : Variable\nBit rate                                 : 157 Kbps\nMaximum bit rate                         : 251 Kbps\nChannel(s)                               : 2 channels\nChannel positions                        : Front: L R\nSampling rate                            : 48.0 KHz\nCompression mode                         : Lossy\nDelay relative to video                  : 40ms\nStream size                              : 23.2 MiB (4%)\nLanguage                                 : English","torrent":{"xt":"urn:btih:df54da9cb7abca126ac55606a1a4bc8fef5c38ca","amp;dn":"Lighthouse_DennisNicolero720p.mp4","amp;tr":["udp%3A%2F%2Ftracker.openbittorrent.com%3A80","udp%3A%2F%2Fopen.demonii.com%3A1337","udp%3A%2F%2Ftracker.coppersurfer.tk%3A6969","udp%3A%2F%2Fexodus.desync.com%3A6969"],"infoHash":"df54da9cb7abca126ac55606a1a4bc8fef5c38ca","infoHashBuffer":{"type":"Buffer","data":[223,84,218,156,183,171,202,18,106,197,86,6,161,164,188,143,239,92,56,202]},"announce":[],"urlList":[]}}